<?xml version="1.0" encoding="UTF-8" standalone="no"?>
<!-- Created with Inkscape (http://www.inkscape.org/) -->

<svg
   xmlns:dc="http://purl.org/dc/elements/1.1/"
   xmlns:cc="http://creativecommons.org/ns#"
   xmlns:rdf="http://www.w3.org/1999/02/22-rdf-syntax-ns#"
   xmlns:svg="http://www.w3.org/2000/svg"
   xmlns="http://www.w3.org/2000/svg"
   xmlns:xlink="http://www.w3.org/1999/xlink"
   xmlns:sodipodi="http://sodipodi.sourceforge.net/DTD/sodipodi-0.dtd"
   xmlns:inkscape="http://www.inkscape.org/namespaces/inkscape"
   width="44.742344mm"
   height="45.804016mm"
   viewBox="0 0 158.53586 162.2977"
   id="svg2"
   version="1.1"
   inkscape:version="0.91 r13725"
   sodipodi:docname="catalogIcon-maustraining.svg">
  <defs
     id="defs4">
    <linearGradient
       inkscape:collect="always"
       id="linearGradient5604">
      <stop
         style="stop-color:#608b9c;stop-opacity:1;"
         offset="0"
         id="stop5606" />
      <stop
         style="stop-color:#2c4047;stop-opacity:1"
         offset="1"
         id="stop5608" />
    </linearGradient>
    <marker
       inkscape:stockid="Arrow1Mstart"
       orient="auto"
       refY="0"
       refX="0"
       id="Arrow1Mstart"
       style="overflow:visible"
       inkscape:isstock="true">
      <path
         id="path4338"
         d="M 0,0 5,-5 -12.5,0 5,5 0,0 Z"
         style="fill:#000000;fill-opacity:1;fill-rule:evenodd;stroke:#000000;stroke-width:1pt;stroke-opacity:1"
         transform="matrix(0.4,0,0,0.4,4,0)"
         inkscape:connector-curvature="0" />
    </marker>
    <marker
       inkscape:stockid="Arrow1Lstart"
       orient="auto"
       refY="0"
       refX="0"
       id="Arrow1Lstart"
       style="overflow:visible"
       inkscape:isstock="true">
      <path
         id="path4332"
         d="M 0,0 5,-5 -12.5,0 5,5 0,0 Z"
         style="fill:#000000;fill-opacity:1;fill-rule:evenodd;stroke:#000000;stroke-width:1pt;stroke-opacity:1"
         transform="matrix(0.8,0,0,0.8,10,0)"
         inkscape:connector-curvature="0" />
    </marker>
    <marker
       inkscape:stockid="Arrow1Lend"
       orient="auto"
       refY="0"
       refX="0"
       id="Arrow1Lend"
       style="overflow:visible"
       inkscape:isstock="true">
      <path
         id="path4335"
         d="M 0,0 5,-5 -12.5,0 5,5 0,0 Z"
         style="fill:#000000;fill-opacity:1;fill-rule:evenodd;stroke:#000000;stroke-width:1pt;stroke-opacity:1"
         transform="matrix(-0.8,0,0,-0.8,-10,0)"
         inkscape:connector-curvature="0" />
    </marker>
    <radialGradient
       inkscape:collect="always"
       xlink:href="#linearGradient5604"
       id="radialGradient5612"
       cx="103.85757"
       cy="318.32278"
       fx="103.85757"
       fy="318.32278"
       r="57.75275"
       gradientTransform="matrix(1.0860563,0.24319225,-0.30604631,1.3667521,88.983915,-144.56074)"
       gradientUnits="userSpaceOnUse" />
  </defs>
  <sodipodi:namedview
     id="base"
     pagecolor="#ffffff"
     bordercolor="#666666"
     borderopacity="1.0"
     inkscape:pageopacity="0.0"
     inkscape:pageshadow="2"
     inkscape:zoom="2"
     inkscape:cx="4.7783312"
     inkscape:cy="107.52812"
     inkscape:document-units="px"
     inkscape:current-layer="g4149"
     showgrid="false"
     fit-margin-top="0"
     fit-margin-left="0"
     fit-margin-right="0"
     fit-margin-bottom="0"
     inkscape:window-width="1918"
     inkscape:window-height="1057"
     inkscape:window-x="-1"
     inkscape:window-y="20"
     inkscape:window-maximized="1" />
  <metadata
     id="metadata7">
    <rdf:RDF>
      <cc:Work
         rdf:about="">
        <dc:format>image/svg+xml</dc:format>
        <dc:type
           rdf:resource="http://purl.org/dc/dcmitype/StillImage" />
        <dc:title></dc:title>
      </cc:Work>
    </rdf:RDF>
  </metadata>
  <g
     inkscape:label="Layer 1"
     inkscape:groupmode="layer"
     id="layer1"
     transform="translate(-166.59251,-226.44525)">
    <g
       id="g4149"
       transform="translate(97.98479,-42.426403)">
      <path
         sodipodi:nodetypes="cccccccccccccccccccc"
         inkscape:connector-curvature="0"
         id="path5583"
         d="m 84.796645,277.73618 c -13.830817,11.60664 -16.472656,31.80884 -11.862364,48.45005 1.536191,2.411 1.467551,11.74014 5.301876,8.34017 10.205863,-6.82857 20.365436,-13.7329 30.600153,-20.51424 -7.8885,-11.83046 -15.94139,-23.55972 -23.726941,-35.45356 z m 6.408082,-4.27145 c 4.437724,5.54971 8.044906,11.77837 12.144733,17.60411 l 12.18616,18.14217 32.25614,-21.66657 C 133.63925,272.98212 110.58,263.57867 91.204727,273.46473 Z m 24.172843,43.72502 c -0.73359,4.2539 -5.4912,5.52742 -8.46954,8.00422 l -26.925549,18.08599 c 9.816065,15.84755 20.546239,31.17405 34.196409,43.83392 34.6099,29.97478 81.86971,-5.69769 68.98665,-41.65309 -6.75463,-18.27257 -17.73006,-34.5168 -28.89554,-50.46852 -1.37752,-2.57744 -3.82363,1.34401 -5.7274,1.97444 -9.84481,6.51738 -19.52635,13.30751 -29.47408,19.65294 -1.14333,0.89093 -2.71001,-0.27995 -3.69095,0.5701 z"
         style="fill:#11181c;fill-opacity:1;stroke:#11181c;stroke-width:1.01885736;stroke-linecap:round;stroke-linejoin:round;stroke-miterlimit:4;stroke-dasharray:none;stroke-dashoffset:0;stroke-opacity:1" />
      <path
         style="fill:none;fill-rule:evenodd;stroke:#1f2b33;stroke-width:5.00000048;stroke-linecap:butt;stroke-linejoin:miter;stroke-miterlimit:4;stroke-dasharray:none;stroke-opacity:1"
         d="m 163.11152,390.72664 c 0,0 13,27 63.5,38"
         id="path5562"
         inkscape:connector-curvature="0" />
      <path
         style="fill:url(#radialGradient5612);fill-opacity:1;stroke:none;stroke-width:1.01885736;stroke-linecap:round;stroke-linejoin:round;stroke-miterlimit:4;stroke-dasharray:none;stroke-dashoffset:0;stroke-opacity:1"
         d="m 84.064412,282.65039 c -13.830817,11.60664 -16.472656,31.80884 -11.862364,48.45005 1.536191,2.411 1.467551,11.74014 5.301876,8.34017 10.205863,-6.82857 20.365432,-13.7329 30.600156,-20.51424 -7.8885,-11.83046 -15.941393,-23.55972 -23.726944,-35.45356 z m 6.408082,-4.27145 c 4.437724,5.54971 8.044906,11.77837 12.144736,17.60411 l 12.18616,18.14217 32.25614,-21.66657 C 132.90702,277.89633 109.84777,268.49288 90.472494,278.37894 Z m 24.172846,43.72502 c -0.73359,4.2539 -5.4912,5.52742 -8.46954,8.00422 l -26.925552,18.08599 c 9.816065,15.84755 20.546245,31.17405 34.196412,43.83392 34.6099,29.97478 81.86971,-5.69769 68.98665,-41.65309 -6.75463,-18.27257 -17.73006,-34.5168 -28.89554,-50.46852 -1.37752,-2.57744 -3.82363,1.34401 -5.7274,1.97444 -9.84481,6.51738 -19.52635,13.30751 -29.47408,19.65294 -1.14333,0.89093 -2.71001,-0.27995 -3.69095,0.5701 z"
         id="path5548"
         inkscape:connector-curvature="0"
         sodipodi:nodetypes="cccccccccccccccccccc" />
      <path
         style="fill:#1f2b33;fill-opacity:1;stroke:#ffffff;stroke-width:1.00000012;stroke-linecap:round;stroke-linejoin:round;stroke-miterlimit:19.60000038;stroke-dasharray:none"
         d="m 71.759281,427.35366 c -2.2981,-0.22998 -2.14775,-2.44371 -2.14775,-3.32044 0,-0.87673 4.275,-7.31468 9.500001,-14.30656 5.224996,-6.99188 10.499996,-14.1892 10.499996,-14.1892 0,0.33092 -4.4402,0.14189 -8.644896,-0.0187 -5.827011,-0.22262 -7.893891,-0.68827 -8.692011,-1.95824 -0.75815,-1.20639 -0.68438,-2.10325 0.26734,-3.25 1.07446,-1.29465 3.65927,-1.58383 14.156827,-1.58383 11.98769,0 12.91654,0.13857 13.956682,2.08209 1.25663,2.34803 0.8093,3.10429 -11.714692,19.80479 l -7.209036,9.61313 6.088326,0.30157 c 3.34858,0.16586 6.44614,-0.0591 6.88346,-0.5 0.43733,-0.44087 3.08217,-7.10157 5.877432,-14.80157 6.13781,-16.90764 9.19991,-20.33068 13.9435,-15.58708 1.05211,1.05211 3.11661,5.88961 4.58777,10.75 1.47116,4.86039 3.02314,9.20237 3.44884,9.64885 0.42571,0.44647 2.02427,-3.74694 3.55237,-9.3187 2.57876,-9.40272 4.37437,-12.99308 6.4981,-12.99308 2.07289,0 3.66336,3.2893 5.95861,12.32316 1.35224,5.32227 2.71175,9.67685 3.02113,9.67685 0.30939,0 1.62548,-4.07421 2.92465,-9.05379 1.29917,-4.97958 3.0936,-9.95712 3.98763,-11.06119 1.81948,-2.24697 4.72419,-1.74327 5.5208,0.95735 0.77871,2.63994 -8.84671,35.39795 -10.75478,36.60153 -3.05672,1.92813 -5.03595,-0.70907 -7.68486,-10.23961 -1.38975,-5.0002 -2.78595,-9.3504 -3.10267,-9.66712 -0.31672,-0.31672 -1.6137,3.37035 -2.88217,8.19349 -2.82699,10.74907 -3.55818,12.26934 -5.90108,12.26934 -2.4129,0 -3.60472,-1.5703 -5.1548,-6.7918 l -1.27408,-4.2918 -6.48224,0.2918 -6.48223,0.2918 -1.36641,4 c -0.75153,2.2 -1.72092,5.2696 -2.64034,5.9571 -1.038262,0.77636 -7.592092,0.31435 -14.182272,0.3491 -6.513918,0.0344 -14.357147,-0.1792 -14.357147,-0.1792 z m 41.197559,-23.127 c -0.84332,-2.47501 -1.72714,-4.50001 -1.96406,-4.50001 -0.43529,0 -1.53019,2.62534 -2.8151,6.75001 -0.63514,2.03883 -0.37181,2.25 2.80577,2.25 l 3.50669,0 z m 44.9047,22.83772 c -0.93637,-0.37784 -1.25,-5.11636 -1.25,-18.88587 0,-17.60271 0.0883,-18.42872 2.08319,-19.49638 1.6619,-0.88942 2.47082,-0.76408 4,0.61981 1.74074,1.57535 1.91681,3.24208 1.91681,18.14544 0,9.40001 -0.44224,17.23708 -1.03518,18.34502 -0.99742,1.86369 -3.09267,2.33004 -5.71482,1.27198 z m 17.71277,-1.58772 c -0.5469,-1.2375 -2.9885,-9.45 -5.42579,-18.25 -4.36587,-15.7633 -4.40314,-16.02866 -2.51949,-17.93693 1.80843,-1.83208 2.01425,-1.84434 3.80198,-0.22646 1.05945,0.95878 2.89076,5.54543 4.16717,10.43693 1.25242,4.79955 2.51197,9.13294 2.79901,9.62976 0.28704,0.49682 1.74804,-3.48246 3.24667,-8.84283 1.49863,-5.36037 3.37454,-10.3959 4.16869,-11.19005 3.37805,-3.37805 5.14656,-0.21139 9.84575,17.62958 l 1.18527,4.5 2.92505,-10.50001 c 1.60878,-5.775 3.64374,-11.04506 4.52213,-11.71125 1.94982,-1.47878 5.3208,0.005 5.3208,2.34264 0,3.07522 -9.13989,33.89642 -10.44475,35.2214 -0.7813,0.79334 -2.18203,1.08306 -3.38715,0.70057 -2.0348,-0.64582 -3.18884,-3.57961 -6.24196,-15.86829 -0.65795,-2.64821 -1.5435,-4.44821 -1.9679,-4 -0.42439,0.44822 -1.77719,4.63994 -3.00621,9.31494 -1.22902,4.675 -2.67611,9.0625 -3.21575,9.75 -1.56357,1.99197 -4.69061,1.45035 -5.77352,-1 z m -23.9432,-39.78444 c -2.46424,-0.51697 -6.96424,-2.18321 -10,-3.70276 -4.47196,-2.23843 -5.51957,-3.23471 -5.51957,-5.24911 0,-3.52313 2.35186,-3.61747 10.24207,-0.41081 9.84221,3.99995 18.40687,3.90816 27.72457,-0.29716 7.12802,-3.21706 10.53337,-3.14288 10.53337,0.22946 0,6.27272 -20.32689,12.08497 -32.98044,9.43038 z m 2.99649,-11.67229 c -5.49243,-6.98249 4.2269,-15.14123 10.52939,-8.83873 4.75737,4.75735 1.83359,11.54545 -4.97287,11.54545 -2.53465,0 -3.982,-0.70504 -5.55652,-2.70672 z"
         id="path5581"
         inkscape:connector-curvature="0"
         sodipodi:nodetypes="cssssssssscscssscssssssssssssscccsssccssscssscssssssssssssscsssssscsssssssssssssss" />
    </g>
  </g>
</svg>
