<?xml version="1.0" encoding="UTF-8" standalone="no"?>
<!-- Created with Inkscape (http://www.inkscape.org/) -->

<svg
   xmlns:dc="http://purl.org/dc/elements/1.1/"
   xmlns:cc="http://creativecommons.org/ns#"
   xmlns:rdf="http://www.w3.org/1999/02/22-rdf-syntax-ns#"
   xmlns:svg="http://www.w3.org/2000/svg"
   xmlns="http://www.w3.org/2000/svg"
   xmlns:xlink="http://www.w3.org/1999/xlink"
   xmlns:sodipodi="http://sodipodi.sourceforge.net/DTD/sodipodi-0.dtd"
   xmlns:inkscape="http://www.inkscape.org/namespaces/inkscape"
   width="44.742344mm"
   height="45.804016mm"
   viewBox="0 0 158.53586 162.2977"
   id="svg2"
   version="1.1"
   inkscape:version="0.91 r13725"
   sodipodi:docname="catalogIcon-adminLanding.svg">
  <defs
     id="defs4">
    <linearGradient
       id="linearGradient5359-3"
       inkscape:collect="always">
      <stop
         id="stop5369"
         offset="0"
         style="stop-color:#608b9c;stop-opacity:1" />
      <stop
         id="stop5371"
         offset="1"
         style="stop-color:#2c4047;stop-opacity:1" />
    </linearGradient>
    <marker
       inkscape:stockid="Arrow1Mstart"
       orient="auto"
       refY="0"
       refX="0"
       id="Arrow1Mstart"
       style="overflow:visible"
       inkscape:isstock="true">
      <path
         id="path4338"
         d="M 0,0 5,-5 -12.5,0 5,5 0,0 Z"
         style="fill:#000000;fill-opacity:1;fill-rule:evenodd;stroke:#000000;stroke-width:1pt;stroke-opacity:1"
         transform="matrix(0.4,0,0,0.4,4,0)"
         inkscape:connector-curvature="0" />
    </marker>
    <marker
       inkscape:stockid="Arrow1Lstart"
       orient="auto"
       refY="0"
       refX="0"
       id="Arrow1Lstart"
       style="overflow:visible"
       inkscape:isstock="true">
      <path
         id="path4332"
         d="M 0,0 5,-5 -12.5,0 5,5 0,0 Z"
         style="fill:#000000;fill-opacity:1;fill-rule:evenodd;stroke:#000000;stroke-width:1pt;stroke-opacity:1"
         transform="matrix(0.8,0,0,0.8,10,0)"
         inkscape:connector-curvature="0" />
    </marker>
    <marker
       inkscape:stockid="Arrow1Lend"
       orient="auto"
       refY="0"
       refX="0"
       id="Arrow1Lend"
       style="overflow:visible"
       inkscape:isstock="true">
      <path
         id="path4335"
         d="M 0,0 5,-5 -12.5,0 5,5 0,0 Z"
         style="fill:#000000;fill-opacity:1;fill-rule:evenodd;stroke:#000000;stroke-width:1pt;stroke-opacity:1"
         transform="matrix(-0.8,0,0,-0.8,-10,0)"
         inkscape:connector-curvature="0" />
    </marker>
    <radialGradient
       inkscape:collect="always"
       xlink:href="#linearGradient5359-3"
       id="radialGradient5365"
       cx="107.39078"
       cy="299.09821"
       fx="107.39078"
       fy="299.09821"
       r="74.025032"
       gradientTransform="matrix(0.47213617,0.99651553,-0.50573416,0.23961031,217.39423,128.61499)"
       gradientUnits="userSpaceOnUse" />
  </defs>
  <sodipodi:namedview
     id="base"
     pagecolor="#ffffff"
     bordercolor="#666666"
     borderopacity="1.0"
     inkscape:pageopacity="0.0"
     inkscape:pageshadow="2"
     inkscape:zoom="2"
     inkscape:cx="-83.971669"
     inkscape:cy="47.52812"
     inkscape:document-units="px"
     inkscape:current-layer="g4149"
     showgrid="false"
     fit-margin-top="0"
     fit-margin-left="0"
     fit-margin-right="0"
     fit-margin-bottom="0"
     inkscape:window-width="1918"
     inkscape:window-height="1057"
     inkscape:window-x="0"
     inkscape:window-y="21"
     inkscape:window-maximized="1" />
  <metadata
     id="metadata7">
    <rdf:RDF>
      <cc:Work
         rdf:about="">
        <dc:format>image/svg+xml</dc:format>
        <dc:type
           rdf:resource="http://purl.org/dc/dcmitype/StillImage" />
        <dc:title></dc:title>
      </cc:Work>
    </rdf:RDF>
  </metadata>
  <g
     inkscape:label="Layer 1"
     inkscape:groupmode="layer"
     id="layer1"
     transform="translate(-166.59251,-226.44525)">
    <g
       id="g4149"
       transform="translate(97.98479,-42.426403)">
      <path
         sodipodi:nodetypes="csssssscssssscsccscsssccssccsscccssssscccsscscscccssssccssssscsssssscssssss"
         inkscape:connector-curvature="0"
         id="path5373"
         d="m 81.551487,406.24583 c -1.785567,-0.52412 -4.197127,-2.69869 -5.032497,-4.53797 -1.21338,-2.67152 -0.96485,-4.68724 1.45731,-11.81942 2.602498,-7.66324 4.405395,-11.28441 7.997608,-16.0634 6.233622,-8.29306 15.504722,-13.98207 26.433662,-16.22043 3.52349,-0.72165 3.8529,-0.6214 7.16728,2.18134 11.36914,9.61407 25.89666,9.24274 36.49272,-0.93277 l 1.86583,-1.79178 2.46427,0.2788 c 8.91875,1.00904 18.9773,6.25285 25.67947,13.38742 5.04347,5.36885 7.75608,10.35442 11.05453,20.31738 1.78018,5.37702 2.04831,6.57552 1.81668,8.12012 -0.41804,2.78777 -2.16443,5.20322 -4.66172,6.44767 l -2.12023,1.05655 -54.70869,-0.036 c -30.23084,-0.0199 -55.244494,-0.19328 -55.906223,-0.3875 z M 202.28419,381.62097 c -0.26373,-0.82331 -1.29908,-3.09824 -2.30078,-5.05542 -1.52723,-2.98396 -2.79172,-4.85918 -7.00293,-10.38528 -0.22003,-0.28874 0.78124,-1.57376 2.82861,-3.63019 9.23993,-9.28081 9.29907,-22.60071 0.14102,-31.75877 -5.76637,-5.76636 -13.11032,-7.93887 -20.74948,-6.13816 -1.40391,0.33094 -2.59339,0.55282 -2.64329,0.49308 -0.0499,-0.0598 0.0827,-1.45585 0.29456,-3.10245 0.48641,-3.77948 0.15174,-10.77594 -0.7228,-15.11127 -0.5701,-2.82604 -0.58827,-3.38912 -0.11904,-3.68628 0.3046,-0.19291 4.0702,-0.35348 8.36799,-0.35685 l 7.81417,-0.006 0.96773,1.02815 c 0.87084,0.92521 0.98772,1.46768 1.16732,5.41813 l 0.19959,4.38999 2.91619,1.21595 2.9162,1.21594 3.12542,-3.04148 c 2.78936,-2.71445 3.2896,-3.04149 4.65241,-3.04149 1.42993,0 1.87688,0.34989 7.03144,5.50444 5.15456,5.15457 5.50444,5.60151 5.50444,7.03145 0,1.36281 -0.32703,1.86305 -3.04148,4.65241 l -3.04148,3.12541 1.21594,2.91621 1.21594,2.91619 4.39,0.19959 c 3.95045,0.1796 4.49292,0.29648 5.41812,1.16732 l 1.02815,0.96773 0,7.8917 c 0,7.76568 -0.0153,7.90959 -0.96294,9.0117 -0.92403,1.07475 -1.14291,1.12806 -5.41822,1.31958 l -4.45529,0.19959 -1.22199,2.93089 -1.22198,2.9309 3.04761,3.0656 c 2.76258,2.77886 3.04762,3.21263 3.04762,4.63771 0,1.48792 -0.29481,1.86693 -5.50444,7.07657 -5.05296,5.05296 -5.62339,5.50444 -6.95464,5.50444 -1.32443,0 -1.49179,-0.12982 -1.92969,-1.49692 z m -14.93362,-20.83808 c -1.2254,-1.35406 -6.36003,-4.71357 -10.0431,-6.57106 -3.41872,-1.72417 -10.29642,-4.21913 -11.66539,-4.23176 -1.6911,-0.0156 -1.64641,-0.5845 0.35015,-4.45663 1.08809,-2.11024 2.66497,-5.8858 3.50417,-8.39012 0.8392,-2.50431 1.66795,-4.78327 1.84166,-5.06433 0.50604,-0.81879 3.75241,-2.04315 6.383,-2.40733 5.36912,-0.74332 10.28098,0.84862 14.22462,4.61022 7.71036,7.35444 6.86854,19.8991 -1.75453,26.14562 -1.87605,1.35901 -1.93456,1.36653 -2.84058,0.36539 z m -54.47179,-2.62304 c -7.98448,-2.24167 -15.76697,-11.22544 -19.91665,-22.99093 -2.30298,-6.52956 -3.04902,-11.00066 -3.05597,-18.31445 -0.006,-6.98799 0.68007,-10.96798 2.67189,-15.48578 6.23311,-14.13785 22.46244,-20.36341 36.14546,-13.86537 11.52824,5.47473 17.383,17.77436 16.01401,33.64208 -1.40318,16.264 -9.64481,30.91514 -20.21548,35.93707 -2.40162,1.14096 -3.45375,1.40107 -6.18724,1.52961 -2.1732,0.1022 -4.02917,-0.0516 -5.45602,-0.45223 z"
         style="fill:#000000;fill-opacity:1" />
      <path
         style="fill:url(#radialGradient5365);fill-opacity:1"
         d="m 77.051487,408.24583 c -1.785567,-0.52412 -4.197127,-2.69869 -5.032497,-4.53797 -1.21338,-2.67152 -0.96485,-4.68724 1.45731,-11.81942 2.602498,-7.66324 4.405395,-11.28441 7.997608,-16.0634 6.233622,-8.29306 15.504722,-13.98207 26.433662,-16.22043 3.52349,-0.72165 3.8529,-0.6214 7.16728,2.18134 11.36914,9.61407 25.89666,9.24274 36.49272,-0.93277 l 1.86583,-1.79178 2.46427,0.2788 c 8.91875,1.00904 18.9773,6.25285 25.67947,13.38742 5.04347,5.36885 7.75608,10.35442 11.05453,20.31738 1.78018,5.37702 2.04831,6.57552 1.81668,8.12012 -0.41804,2.78777 -2.16443,5.20322 -4.66172,6.44767 l -2.12023,1.05655 -54.70869,-0.036 c -30.23084,-0.0199 -55.244494,-0.19328 -55.906223,-0.3875 z M 197.78419,383.62097 c -0.26373,-0.82331 -1.29908,-3.09824 -2.30078,-5.05542 -1.52723,-2.98396 -2.79172,-4.85918 -7.00293,-10.38528 -0.22003,-0.28874 0.78124,-1.57376 2.82861,-3.63019 9.23993,-9.28081 9.29907,-22.60071 0.14102,-31.75877 -5.76637,-5.76636 -13.11032,-7.93887 -20.74948,-6.13816 -1.40391,0.33094 -2.59339,0.55282 -2.64329,0.49308 -0.0499,-0.0598 0.0827,-1.45585 0.29456,-3.10245 0.48641,-3.77948 0.15174,-10.77594 -0.7228,-15.11127 -0.5701,-2.82604 -0.58827,-3.38912 -0.11904,-3.68628 0.3046,-0.19291 4.0702,-0.35348 8.36799,-0.35685 l 7.81417,-0.006 0.96773,1.02815 c 0.87084,0.92521 0.98772,1.46768 1.16732,5.41813 l 0.19959,4.38999 2.91619,1.21595 2.9162,1.21594 3.12542,-3.04148 c 2.78936,-2.71445 3.2896,-3.04149 4.65241,-3.04149 1.42993,0 1.87688,0.34989 7.03144,5.50444 5.15456,5.15457 5.50444,5.60151 5.50444,7.03145 0,1.36281 -0.32703,1.86305 -3.04148,4.65241 l -3.04148,3.12541 1.21594,2.91621 1.21594,2.91619 4.39,0.19959 c 3.95045,0.1796 4.49292,0.29648 5.41812,1.16732 l 1.02815,0.96773 0,7.8917 c 0,7.76568 -0.0153,7.90959 -0.96294,9.0117 -0.92403,1.07475 -1.14291,1.12806 -5.41822,1.31958 l -4.45529,0.19959 -1.22199,2.93089 -1.22198,2.9309 3.04761,3.0656 c 2.76258,2.77886 3.04762,3.21263 3.04762,4.63771 0,1.48792 -0.29481,1.86693 -5.50444,7.07657 -5.05296,5.05296 -5.62339,5.50444 -6.95464,5.50444 -1.32443,0 -1.49179,-0.12982 -1.92969,-1.49692 z m -14.93362,-20.83808 c -1.2254,-1.35406 -6.36003,-4.71357 -10.0431,-6.57106 -3.41872,-1.72417 -10.29642,-4.21913 -11.66539,-4.23176 -1.6911,-0.0156 -1.64641,-0.5845 0.35015,-4.45663 1.08809,-2.11024 2.66497,-5.8858 3.50417,-8.39012 0.8392,-2.50431 1.66795,-4.78327 1.84166,-5.06433 0.50604,-0.81879 3.75241,-2.04315 6.383,-2.40733 5.36912,-0.74332 10.28098,0.84862 14.22462,4.61022 7.71036,7.35444 6.86854,19.8991 -1.75453,26.14562 -1.87605,1.35901 -1.93456,1.36653 -2.84058,0.36539 z m -54.47179,-2.62304 c -7.98448,-2.24167 -15.76697,-11.22544 -19.91665,-22.99093 -2.30298,-6.52956 -3.04902,-11.00066 -3.05597,-18.31445 -0.006,-6.98799 0.68007,-10.96798 2.67189,-15.48578 6.23311,-14.13785 22.46244,-20.36341 36.14546,-13.86537 11.52824,5.47473 17.383,17.77436 16.01401,33.64208 -1.40318,16.264 -9.64481,30.91514 -20.21548,35.93707 -2.40162,1.14096 -3.45375,1.40107 -6.18724,1.52961 -2.1732,0.1022 -4.02917,-0.0516 -5.45602,-0.45223 z"
         id="path4779"
         inkscape:connector-curvature="0"
         sodipodi:nodetypes="csssssscssssscsccscsssccssccsscccssssscccsscscscccssssccssssscsssssscssssss" />
      <path
         style="fill:#1f2b33;fill-opacity:1;stroke:#ffffff;stroke-width:1.00000012;stroke-linecap:round;stroke-linejoin:round;stroke-miterlimit:19.60000038;stroke-dasharray:none"
         d="m 71.759281,427.35366 c -2.2981,-0.22998 -2.14775,-2.44371 -2.14775,-3.32044 0,-0.87673 4.275,-7.31468 9.500001,-14.30656 5.224996,-6.99188 10.499996,-14.1892 10.499996,-14.1892 0,0.33092 -4.4402,0.14189 -8.644896,-0.0187 -5.827011,-0.22262 -7.893891,-0.68827 -8.692011,-1.95824 -0.75815,-1.20639 -0.68438,-2.10325 0.26734,-3.25 1.07446,-1.29465 3.65927,-1.58383 14.156827,-1.58383 11.98769,0 12.91654,0.13857 13.956682,2.08209 1.25663,2.34803 0.8093,3.10429 -11.714692,19.80479 l -7.209036,9.61313 6.088326,0.30157 c 3.34858,0.16586 6.44614,-0.0591 6.88346,-0.5 0.43733,-0.44087 3.08217,-7.10157 5.877432,-14.80157 6.13781,-16.90764 9.19991,-20.33068 13.9435,-15.58708 1.05211,1.05211 3.11661,5.88961 4.58777,10.75 1.47116,4.86039 3.02314,9.20237 3.44884,9.64885 0.42571,0.44647 2.02427,-3.74694 3.55237,-9.3187 2.57876,-9.40272 4.37437,-12.99308 6.4981,-12.99308 2.07289,0 3.66336,3.2893 5.95861,12.32316 1.35224,5.32227 2.71175,9.67685 3.02113,9.67685 0.30939,0 1.62548,-4.07421 2.92465,-9.05379 1.29917,-4.97958 3.0936,-9.95712 3.98763,-11.06119 1.81948,-2.24697 4.72419,-1.74327 5.5208,0.95735 0.77871,2.63994 -8.84671,35.39795 -10.75478,36.60153 -3.05672,1.92813 -5.03595,-0.70907 -7.68486,-10.23961 -1.38975,-5.0002 -2.78595,-9.3504 -3.10267,-9.66712 -0.31672,-0.31672 -1.6137,3.37035 -2.88217,8.19349 -2.82699,10.74907 -3.55818,12.26934 -5.90108,12.26934 -2.4129,0 -3.60472,-1.5703 -5.1548,-6.7918 l -1.27408,-4.2918 -6.48224,0.2918 -6.48223,0.2918 -1.36641,4 c -0.75153,2.2 -1.72092,5.2696 -2.64034,5.9571 -1.038262,0.77636 -7.592092,0.31435 -14.182272,0.3491 -6.513918,0.0344 -14.357147,-0.1792 -14.357147,-0.1792 z m 41.197559,-23.127 c -0.84332,-2.47501 -1.72714,-4.50001 -1.96406,-4.50001 -0.43529,0 -1.53019,2.62534 -2.8151,6.75001 -0.63514,2.03883 -0.37181,2.25 2.80577,2.25 l 3.50669,0 z m 44.9047,22.83772 c -0.93637,-0.37784 -1.25,-5.11636 -1.25,-18.88587 0,-17.60271 0.0883,-18.42872 2.08319,-19.49638 1.6619,-0.88942 2.47082,-0.76408 4,0.61981 1.74074,1.57535 1.91681,3.24208 1.91681,18.14544 0,9.40001 -0.44224,17.23708 -1.03518,18.34502 -0.99742,1.86369 -3.09267,2.33004 -5.71482,1.27198 z m 17.71277,-1.58772 c -0.5469,-1.2375 -2.9885,-9.45 -5.42579,-18.25 -4.36587,-15.7633 -4.40314,-16.02866 -2.51949,-17.93693 1.80843,-1.83208 2.01425,-1.84434 3.80198,-0.22646 1.05945,0.95878 2.89076,5.54543 4.16717,10.43693 1.25242,4.79955 2.51197,9.13294 2.79901,9.62976 0.28704,0.49682 1.74804,-3.48246 3.24667,-8.84283 1.49863,-5.36037 3.37454,-10.3959 4.16869,-11.19005 3.37805,-3.37805 5.14656,-0.21139 9.84575,17.62958 l 1.18527,4.5 2.92505,-10.50001 c 1.60878,-5.775 3.64374,-11.04506 4.52213,-11.71125 1.94982,-1.47878 5.3208,0.005 5.3208,2.34264 0,3.07522 -9.13989,33.89642 -10.44475,35.2214 -0.7813,0.79334 -2.18203,1.08306 -3.38715,0.70057 -2.0348,-0.64582 -3.18884,-3.57961 -6.24196,-15.86829 -0.65795,-2.64821 -1.5435,-4.44821 -1.9679,-4 -0.42439,0.44822 -1.77719,4.63994 -3.00621,9.31494 -1.22902,4.675 -2.67611,9.0625 -3.21575,9.75 -1.56357,1.99197 -4.69061,1.45035 -5.77352,-1 z m -23.9432,-39.78444 c -2.46424,-0.51697 -6.96424,-2.18321 -10,-3.70276 -4.47196,-2.23843 -5.51957,-3.23471 -5.51957,-5.24911 0,-3.52313 2.35186,-3.61747 10.24207,-0.41081 9.84221,3.99995 18.40687,3.90816 27.72457,-0.29716 7.12802,-3.21706 10.53337,-3.14288 10.53337,0.22946 0,6.27272 -20.32689,12.08497 -32.98044,9.43038 z m 2.99649,-11.67229 c -5.49243,-6.98249 4.2269,-15.14123 10.52939,-8.83873 4.75737,4.75735 1.83359,11.54545 -4.97287,11.54545 -2.53465,0 -3.982,-0.70504 -5.55652,-2.70672 z"
         id="path5581"
         inkscape:connector-curvature="0"
         sodipodi:nodetypes="cssssssssscscssscssssssssssssscccsssccssscssscssssssssssssscsssssscsssssssssssssss" />
    </g>
  </g>
</svg>
