<?xml version="1.0" encoding="UTF-8" standalone="no"?>
<!-- Created with Inkscape (http://www.inkscape.org/) -->

<svg
   xmlns:dc="http://purl.org/dc/elements/1.1/"
   xmlns:cc="http://creativecommons.org/ns#"
   xmlns:rdf="http://www.w3.org/1999/02/22-rdf-syntax-ns#"
   xmlns:svg="http://www.w3.org/2000/svg"
   xmlns="http://www.w3.org/2000/svg"
   xmlns:sodipodi="http://sodipodi.sourceforge.net/DTD/sodipodi-0.dtd"
   xmlns:inkscape="http://www.inkscape.org/namespaces/inkscape"
   width="76.342499mm"
   height="56.066841mm"
   viewBox="0 0 270.50492 198.66203"
   id="svg2"
   version="1.1"
   inkscape:version="0.91 r13725"
   sodipodi:docname="catalogIcon-osticket.svg">
  <defs
     id="defs4" />
  <sodipodi:namedview
     id="base"
     pagecolor="#ffffff"
     bordercolor="#666666"
     borderopacity="1.0"
     inkscape:pageopacity="0.0"
     inkscape:pageshadow="2"
     inkscape:zoom="0.98994949"
     inkscape:cx="66.928789"
     inkscape:cy="-54.127867"
     inkscape:document-units="px"
     inkscape:current-layer="g4149"
     showgrid="false"
     fit-margin-top="0"
     fit-margin-left="0"
     fit-margin-right="0"
     fit-margin-bottom="0"
     inkscape:window-width="1918"
     inkscape:window-height="1057"
     inkscape:window-x="-1"
     inkscape:window-y="20"
     inkscape:window-maximized="1" />
  <metadata
     id="metadata7">
    <rdf:RDF>
      <cc:Work
         rdf:about="">
        <dc:format>image/svg+xml</dc:format>
        <dc:type
           rdf:resource="http://purl.org/dc/dcmitype/StillImage" />
        <dc:title></dc:title>
      </cc:Work>
    </rdf:RDF>
  </metadata>
  <g
     inkscape:label="Layer 1"
     inkscape:groupmode="layer"
     id="layer1"
     transform="translate(-180.00992,-194.79514)">
    <g
       id="g4149"
       transform="translate(97.98479,-42.426403)">
      <path
         style="fill:none"
         d="m 81.589615,358.88358 0,-122 272.999995,0 0,200 -272.999995,0 z"
         id="path4155"
         inkscape:connector-curvature="0"
         sodipodi:nodetypes="cccccc" />
      <path
         style="fill:#f58f2e"
         d="m 147.50115,434.27699 c -1.12956,-1.36104 -0.99543,-2.19372 0.87756,-5.44812 1.216,-2.11284 2.2109,-4.65904 2.2109,-5.65822 0,-0.99918 1.0125,-3.61002 2.25,-5.80188 2.14127,-3.7926 2.25,-5.03108 2.25,-25.62756 0,-24.99047 -1.07155,-22.11392 12.05889,-32.37185 4.43239,-3.46273 9.29523,-7.9168 10.8063,-9.89792 3.71458,-4.87006 6.24408,-12.63576 7.52392,-23.09882 1.04547,-8.54705 1.01522,-8.79615 -1.61315,-13.28112 -2.07167,-3.53504 -2.65039,-5.77584 -2.55408,-9.88931 0.0685,-2.92524 -0.20226,-5.31861 -0.60167,-5.31861 -1.8201,0 -9.24387,6.48077 -12.87921,11.24325 -10.05107,13.16737 -16.13855,27.82342 -20.77434,50.01574 -9.05089,43.32824 -13.28178,54.67444 -23.36568,62.66104 -11.16166,8.84019 -23.24297,9.99306 -36.280206,3.46206 -7.273764,-3.64379 -7.184429,-4.75802 0.300282,-3.74524 8.706623,1.17811 16.630874,0.97231 21.173624,-0.5499 4.84675,-1.62408 12.73517,-9.49161 15.57558,-15.53433 2.21069,-4.70303 5.48655,-23.99536 8.60023,-50.64884 2.25759,-19.32523 11.53224,-47.796 20.58064,-63.17721 2.533,-4.30581 7.72661,-10.67556 12.85005,-15.76009 14.91908,-14.80578 33.80307,-22.47615 58.3009,-23.68087 20.09008,-0.98797 32.69263,2.07537 44.11661,10.72355 10.80173,8.17712 14.0111,9.49097 23.18131,9.48994 10.24686,-10e-4 13.44603,-1.78185 17.96427,-9.9991 2.47273,-4.49713 3.44776,-7.72523 3.89264,-12.88773 0.57903,-6.71894 2.43912,-11.21303 5.05685,-12.21755 0.71347,-0.27379 2.93725,0.46985 4.94173,1.65252 3.30174,1.94807 3.64451,2.55813 3.64451,6.48644 0,2.38486 -0.43776,5.48751 -0.9728,6.89477 -0.88582,2.3299 -0.63995,2.72934 2.75,4.46779 4.89782,2.5117 7.37097,5.34036 11.01973,12.60376 1.65775,3.3 4.44533,7.35 6.19463,9 5.99577,5.65541 6.06843,7.69139 0.42805,11.99352 l -3.40665,2.59838 -4.25648,-2.4513 c -2.49761,-1.43838 -6.76093,-2.72853 -10.31729,-3.12218 l -6.06081,-0.67088 -3.6213,5.86696 c -4.73711,7.67473 -13.39326,15.77177 -20.18479,18.88103 -6.13909,2.81057 -19.73148,16.33337 -23.7456,23.62402 -1.66494,3.02396 -3.08619,4.36075 -4.84172,4.55399 -1.36673,0.15045 -4.32232,0.75039 -6.56796,1.3332 -3.23708,0.84012 -4.84272,0.74223 -7.75,-0.47251 -4.48958,-1.87587 -4.6602,-3.39204 -0.54323,-4.82723 2.67497,-0.93249 2.87877,-1.22607 1.41848,-2.04329 -0.93792,-0.52488 -2.64137,-0.70955 -3.78546,-0.41036 -2.55963,0.66936 -5.7568,-0.92059 -5.7568,-2.86285 0,-2.01267 4.56282,-4.12909 10.69117,-4.959 3.94521,-0.53426 5.5753,-1.28924 6.79156,-3.14549 2.27478,-3.47175 1.18819,-4.38051 -5.29175,-4.4257 -3.13004,-0.0218 -8.95177,-0.61195 -12.93718,-1.31137 -3.98541,-0.69942 -7.58541,-1.01906 -8,-0.71031 -0.41459,0.30875 -2.52772,4.16137 -4.69584,8.56137 -5.46447,11.08963 -14.19216,19.55949 -32.86947,31.89846 -15.57428,10.28899 -25.84508,19.06188 -30.87424,26.37153 -3.46028,5.02934 -5.22993,13.62975 -6.70295,32.57598 -0.85885,11.04669 -1.11296,12.04793 -3.76615,14.83927 -3.06448,3.22407 -7.37418,5.81476 -9.67304,5.81476 -0.78497,0 -2.02722,-0.72296 -2.76057,-1.60659 z M 270.9692,332.02229 c 2.16656,-1.88891 5.62041,-9.39932 5.62041,-12.22162 0,-4.29011 -3.80111,-0.88066 -6.78841,6.08894 -1.10177,2.57052 -3.06539,5.11295 -4.57148,5.91898 -1.45205,0.77712 -2.64011,1.82266 -2.64011,2.32343 0,1.34838 6.20503,-0.21386 8.37959,-2.10973 z m -32.07432,100.88098 c -14.39518,-2.18301 -25.23841,-12.50572 -29.82337,-28.39176 -2.39586,-8.30117 -1.67616,-24.91467 1.42436,-32.88002 4.3222,-11.10386 13.6581,-19.79449 24.59375,-22.89389 6.53774,-1.85294 18.21529,-1.31914 24.74665,1.13122 17.11953,6.42269 27.11417,26.60013 23.94732,48.34551 -1.52773,10.49031 -5.64147,19.16925 -9.08605,19.16925 -1.40286,0 -3.13958,-1.03384 -4.19966,-2.5 -1.76079,-2.4353 -1.74137,-2.69411 0.7502,-10 5.07439,-14.87932 1.63152,-32.98809 -7.91075,-41.60897 -5.5498,-5.0139 -10.10679,-6.72538 -17.84497,-6.70203 -15.24838,0.046 -25.9735,11.98162 -27.54737,30.65656 -1.99291,23.64716 13.90679,40.8921 33.89565,36.76346 5.9064,-1.21994 6.12398,-1.18855 8.5452,1.23265 1.45563,1.45564 2.24063,3.11993 1.89562,4.01899 -1.11518,2.90613 -14.5207,5.00353 -23.38658,3.65903 z m 72.70668,-0.12871 c -7.12329,-1.22404 -13.31399,-4.27145 -17.5611,-8.64455 -3.52203,-3.62653 -7.45085,-12.47666 -7.45085,-16.78394 0,-2.28034 0.36108,-2.46249 4.8813,-2.46249 l 4.88128,0 1.17755,4.67648 c 2.62745,10.4346 13.27346,16.1301 27.63479,14.78433 6.41643,-0.60127 7.78375,-0.4462 9.46263,1.07317 3.16429,2.86364 2.49129,5.25367 -1.78755,6.34809 -6.15729,1.5749 -15.39149,2.01357 -21.23805,1.00891 z m 24.64304,-6.71972 c -2.35451,-2.6017 -2.08572,-3.80761 1.59501,-7.15604 3.94528,-3.5891 4.78892,-3.66714 7.57569,-0.70077 2.8746,3.05988 2.75234,4.02138 -0.90242,7.09666 -3.62852,3.0532 -5.99612,3.27087 -8.26828,0.76015 z m -74.66575,-1.68271 -2.35938,-2.51145 3.38124,-3.48855 c 3.98825,-4.11483 5.84022,-4.34016 8.90026,-1.0829 2.60662,2.77462 1.90116,5.17672 -2.33556,7.95273 -3.40925,2.23382 -4.82312,2.07172 -7.58655,-0.86983 z m 83.82778,-8.23855 c -1.42838,-1.5361 -2.82369,-4.50532 -3.16098,-6.72655 -1.30075,-8.56622 -5.45718,-11.20905 -25.27378,-16.07012 -20.2047,-4.95628 -26.30347,-9.45812 -27.18311,-20.06534 -0.68831,-8.30024 0.42668,-11.96851 5.10311,-16.78901 5.88205,-6.06327 13.59247,-8.8053 24.69775,-8.7832 9.34526,0.0186 15.34587,1.68518 20.65902,5.73772 4.58462,3.49686 8.40749,10.40702 8.64464,15.62593 l 0.19633,4.32057 -4.5,0 c -4.4093,0 -4.52684,-0.0848 -5.83152,-4.20729 -2.93648,-9.27855 -14.14892,-14.7494 -25.31904,-12.35384 -9.06134,1.94331 -13.84944,6.39926 -13.84944,12.8887 0,3.47449 3.80054,8.5008 8.11449,10.73163 1.58194,0.81806 8.72196,2.8145 15.86671,4.43653 18.10531,4.11036 23.81509,7.48273 27.46575,16.22215 2.66986,6.39143 1.5584,17.78212 -1.73511,17.78212 -0.73571,0 -2.48838,-1.2375 -3.89482,-2.75 z"
         id="path4153"
         inkscape:connector-curvature="0"
         sodipodi:nodetypes="ssssssssssssssssssssssscsssssssssscsscsssssssssssssssssssssssssssssssssssssssssssssssscssssssssssccsssccsssssssscsssssssss" />
      <path
         style="fill:#333536"
         d="m 234.54018,431.5216 c -19.67459,-5.30628 -31.11817,-29.33574 -25.44005,-53.4195 4.45969,-18.91581 18.29496,-30.21852 36.98948,-30.21852 17.05169,0 30.48964,10.27854 35.65014,27.2684 3.73706,12.30345 1.48345,33.01253 -4.48,41.16803 -1.09538,1.49803 -1.70533,1.6151 -3.47639,0.66726 -4.02463,-2.15391 -4.51577,-4.62282 -2.23225,-11.22123 4.33315,-12.521 3.59667,-24.15813 -2.2263,-35.178 -5.36229,-10.14805 -14.75294,-15.43401 -25.66164,-14.44485 -15.09027,1.36834 -24.99689,13.58253 -25.88912,31.91951 -0.63786,13.10937 2.10898,21.2743 9.71635,28.88167 3.78233,3.78233 7.09086,6.12106 9.67376,6.83819 4.9701,1.3799 13.47551,1.41269 17.01865,0.0656 2.35794,-0.89649 3.10226,-0.67246 5.54681,1.66957 2.01757,1.93296 2.53459,3.05302 1.81146,3.92433 -2.68195,3.23156 -18.27629,4.4326 -27.0009,2.07954 z m 74.54943,0.40906 c -12.36211,-3.08312 -20.57232,-11.81882 -21.66073,-23.04708 l -0.33927,-3.5 4.38963,0 c 4.26152,0 4.42426,0.11734 5.57686,4.02095 1.76076,5.96328 4.28327,9.24711 9.42537,12.27003 4.21658,2.47883 5.53462,2.71585 15.51164,2.78946 10.08433,0.0744 11.0418,0.25125 12.74464,2.35416 1.01263,1.25055 1.6262,2.62151 1.3635,3.04657 -1.54952,2.50717 -19.68183,3.89396 -27.01164,2.06591 z m 36.70508,-16.33549 c -2.1327,-2.2004 -3.20633,-4.29463 -3.20882,-6.2592 -0.006,-4.41521 -3.26401,-8.9195 -8.17068,-11.29478 -2.40342,-1.16347 -9.51316,-3.27644 -15.79942,-4.69548 -14.41078,-3.25305 -20.10838,-5.70386 -24.4613,-10.52201 -5.69376,-6.30233 -6.1431,-16.61222 -1.04463,-23.96932 6.17134,-8.90523 24.30886,-13.48807 37.82777,-9.55801 7.92276,2.30321 14.84197,8.99789 17.04684,16.4937 1.81523,6.17114 1.03377,8.10326 -3.26728,8.0782 -3.65112,-0.0213 -4.54587,-0.87133 -5.9386,-5.64195 -3.72912,-12.77356 -25.7599,-16.9718 -35.89204,-6.83966 -6.50615,6.50615 -3.56473,16.32293 5.98152,19.9629 2.32186,0.88533 9.68592,2.87169 16.36459,4.41414 14.69479,3.39379 20.24023,6.3637 24.08039,12.89646 2.27624,3.87225 2.76338,5.85644 2.70334,11.01095 -0.048,4.11894 -0.58083,6.79511 -1.54492,7.7592 -1.29556,1.29556 -1.85521,1.07596 -4.67676,-1.83514 z"
         id="path4151"
         inkscape:connector-curvature="0"
         sodipodi:nodetypes="csssssssssssssscssscsssssssscssssssssssssss" />
    </g>
  </g>
</svg>
